<mxfile host="app.diagrams.net" modified="2021-10-01T17:50:03.682Z" agent="5.0 (Windows NT 10.0; Win64; x64) AppleWebKit/537.36 (KHTML, like Gecko) Chrome/93.0.4577.82 Safari/537.36 OPR/79.0.4143.50 (Edition utorrent)" etag="dPpAEr55_9c6rEJq0knI" version="15.4.1" type="github">
  <diagram id="R2lEEEUBdFMjLlhIrx00" name="Page-1">
    <mxGraphModel dx="868" dy="483" grid="1" gridSize="10" guides="1" tooltips="1" connect="1" arrows="1" fold="1" page="1" pageScale="1" pageWidth="850" pageHeight="1100" math="0" shadow="0" extFonts="Permanent Marker^https://fonts.googleapis.com/css?family=Permanent+Marker">
      <root>
        <mxCell id="0" />
        <mxCell id="1" parent="0" />
        <mxCell id="GNHdv46s6I0qKDh0TSVc-1" value="Endereço" style="swimlane;childLayout=stackLayout;horizontal=1;startSize=30;horizontalStack=0;rounded=0;fontSize=14;fontStyle=0;strokeWidth=2;resizeParent=0;resizeLast=1;shadow=0;dashed=0;align=center;" vertex="1" parent="1">
          <mxGeometry x="50" y="60" width="160" height="120" as="geometry" />
        </mxCell>
        <mxCell id="GNHdv46s6I0qKDh0TSVc-2" value="Cidade&#xa;CEP&#xa;Número&#xa;Logradouro &#xa;UF" style="align=left;strokeColor=none;fillColor=none;spacingLeft=4;fontSize=12;verticalAlign=top;resizable=0;rotatable=0;part=1;" vertex="1" parent="GNHdv46s6I0qKDh0TSVc-1">
          <mxGeometry y="30" width="160" height="90" as="geometry" />
        </mxCell>
        <mxCell id="GNHdv46s6I0qKDh0TSVc-3" value="Pessoa" style="swimlane;childLayout=stackLayout;horizontal=1;startSize=30;horizontalStack=0;rounded=0;fontSize=14;fontStyle=0;strokeWidth=2;resizeParent=0;resizeLast=1;shadow=0;dashed=0;align=center;" vertex="1" parent="1">
          <mxGeometry x="440" y="60" width="160" height="120" as="geometry" />
        </mxCell>
        <mxCell id="GNHdv46s6I0qKDh0TSVc-4" value="*ID&#xa;Nome" style="align=left;strokeColor=none;fillColor=none;spacingLeft=4;fontSize=12;verticalAlign=top;resizable=0;rotatable=0;part=1;rounded=0;" vertex="1" parent="GNHdv46s6I0qKDh0TSVc-3">
          <mxGeometry y="30" width="160" height="90" as="geometry" />
        </mxCell>
        <mxCell id="GNHdv46s6I0qKDh0TSVc-22" value="" style="endArrow=ERmandOne;html=1;rounded=0;fontSize=12;startArrow=ERmandOne;startFill=0;endFill=0;exitX=0.5;exitY=0;exitDx=0;exitDy=0;edgeStyle=orthogonalEdgeStyle;" edge="1" parent="GNHdv46s6I0qKDh0TSVc-3" source="GNHdv46s6I0qKDh0TSVc-5">
          <mxGeometry relative="1" as="geometry">
            <mxPoint x="-120" y="120" as="sourcePoint" />
            <mxPoint x="40" y="120" as="targetPoint" />
          </mxGeometry>
        </mxCell>
        <mxCell id="GNHdv46s6I0qKDh0TSVc-5" value="Física" style="swimlane;childLayout=stackLayout;horizontal=1;startSize=30;horizontalStack=0;rounded=0;fontSize=14;fontStyle=0;strokeWidth=2;resizeParent=0;resizeLast=1;shadow=0;dashed=0;align=center;" vertex="1" parent="1">
          <mxGeometry x="280" y="300" width="160" height="120" as="geometry" />
        </mxCell>
        <mxCell id="GNHdv46s6I0qKDh0TSVc-6" value="Sexo&#xa;CPF" style="align=left;strokeColor=none;fillColor=none;spacingLeft=4;fontSize=12;verticalAlign=top;resizable=0;rotatable=0;part=1;rounded=0;" vertex="1" parent="GNHdv46s6I0qKDh0TSVc-5">
          <mxGeometry y="30" width="160" height="90" as="geometry" />
        </mxCell>
        <mxCell id="GNHdv46s6I0qKDh0TSVc-7" value="Jurídica" style="swimlane;childLayout=stackLayout;horizontal=1;startSize=30;horizontalStack=0;rounded=0;fontSize=14;fontStyle=0;strokeWidth=2;resizeParent=0;resizeLast=1;shadow=0;dashed=0;align=center;" vertex="1" parent="1">
          <mxGeometry x="600" y="300" width="160" height="120" as="geometry" />
        </mxCell>
        <mxCell id="GNHdv46s6I0qKDh0TSVc-8" value="Inscrição&#xa;CNPJ" style="align=left;strokeColor=none;fillColor=none;spacingLeft=4;fontSize=12;verticalAlign=top;resizable=0;rotatable=0;part=1;rounded=0;" vertex="1" parent="GNHdv46s6I0qKDh0TSVc-7">
          <mxGeometry y="30" width="160" height="90" as="geometry" />
        </mxCell>
        <mxCell id="GNHdv46s6I0qKDh0TSVc-11" value="" style="edgeStyle=entityRelationEdgeStyle;fontSize=12;html=1;endArrow=ERmandOne;startArrow=ERmandOne;rounded=0;exitX=0.994;exitY=0.433;exitDx=0;exitDy=0;exitPerimeter=0;entryX=-0.006;entryY=0.411;entryDx=0;entryDy=0;entryPerimeter=0;" edge="1" parent="1" source="GNHdv46s6I0qKDh0TSVc-2" target="GNHdv46s6I0qKDh0TSVc-4">
          <mxGeometry width="100" height="100" relative="1" as="geometry">
            <mxPoint x="280" y="140" as="sourcePoint" />
            <mxPoint x="380" y="40" as="targetPoint" />
          </mxGeometry>
        </mxCell>
        <mxCell id="GNHdv46s6I0qKDh0TSVc-12" value="Possui" style="edgeLabel;html=1;align=center;verticalAlign=middle;resizable=0;points=[];fontSize=12;spacingTop=-4;" vertex="1" connectable="0" parent="GNHdv46s6I0qKDh0TSVc-11">
          <mxGeometry x="0.038" y="-2" relative="1" as="geometry">
            <mxPoint as="offset" />
          </mxGeometry>
        </mxCell>
        <mxCell id="GNHdv46s6I0qKDh0TSVc-25" value="" style="endArrow=ERmandOne;html=1;rounded=0;fontSize=12;edgeStyle=orthogonalEdgeStyle;exitX=0.681;exitY=1;exitDx=0;exitDy=0;exitPerimeter=0;entryX=0.5;entryY=0;entryDx=0;entryDy=0;startArrow=ERmandOne;startFill=0;endFill=0;" edge="1" parent="1" source="GNHdv46s6I0qKDh0TSVc-4" target="GNHdv46s6I0qKDh0TSVc-7">
          <mxGeometry relative="1" as="geometry">
            <mxPoint x="580" y="230" as="sourcePoint" />
            <mxPoint x="740" y="230" as="targetPoint" />
          </mxGeometry>
        </mxCell>
      </root>
    </mxGraphModel>
  </diagram>
</mxfile>
